<svg width="24" height="24" viewBox="0 0 24 24" fill="none" xmlns="http://www.w3.org/2000/svg">
<path fill-rule="evenodd" clip-rule="evenodd" d="M12 22C7.28595 22 4.92893 22 3.46447 20.5355C2 19.0711 2 16.714 2 12C2 7.28595 2 4.92893 3.46447 3.46447C4.92893 2 7.28595 2 12 2C16.714 2 19.0711 2 20.5355 3.46447C22 4.92893 22 7.28595 22 12C22 16.714 22 19.0711 20.5355 20.5355C19.0711 22 16.714 22 12 22ZM9.74574 15.7727V8.5H8.30043L6.5 9.63991V11.0036L8.16548 9.95952H8.2081V15.7727H9.74574ZM12.7882 15.5952C13.1812 15.7798 13.6286 15.8722 14.1305 15.8722C14.6703 15.8722 15.1438 15.7644 15.551 15.549C15.9605 15.3312 16.2789 15.0329 16.5062 14.6541C16.7359 14.273 16.8495 13.8374 16.8471 13.3473C16.8495 12.8809 16.7512 12.469 16.5524 12.1115C16.3535 11.7517 16.0824 11.4688 15.7392 11.2628C15.3959 11.0568 15.0053 10.9538 14.5673 10.9538C14.2477 10.9538 13.9589 11.013 13.7008 11.1314C13.4428 11.2498 13.2498 11.3989 13.122 11.5788H13.0794L13.2676 9.7571H16.4458V8.5H11.9998L11.6554 12.3352L13.0225 12.5803C13.1338 12.4287 13.2889 12.3092 13.4877 12.2216C13.689 12.134 13.8961 12.0902 14.1092 12.0902C14.353 12.0926 14.5697 12.1482 14.7591 12.2571C14.9485 12.366 15.0964 12.5175 15.2029 12.7116C15.3118 12.9058 15.3663 13.1307 15.3663 13.3864C15.3663 13.6373 15.313 13.8598 15.2065 14.054C15.1023 14.2457 14.9567 14.3961 14.7697 14.505C14.585 14.6115 14.372 14.6648 14.1305 14.6648C13.8275 14.6648 13.5659 14.5772 13.3457 14.402C13.1255 14.2268 13.0072 13.9983 12.9906 13.7166H11.4991C11.5086 14.1357 11.6281 14.5073 11.8578 14.8317C12.0874 15.156 12.3975 15.4105 12.7882 15.5952Z" fill="#708090"/>
</svg>
