<svg width="24" height="24" viewBox="0 0 24 24" fill="none" xmlns="http://www.w3.org/2000/svg">
<path fill-rule="evenodd" clip-rule="evenodd" d="M12 22C7.28595 22 4.92893 22 3.46447 20.5355C2 19.0711 2 16.714 2 12C2 7.28595 2 4.92893 3.46447 3.46447C4.92893 2 7.28595 2 12 2C16.714 2 19.0711 2 20.5355 3.46447C22 4.92893 22 7.28595 22 12C22 16.714 22 19.0711 20.5355 20.5355C19.0711 22 16.714 22 12 22ZM13.1824 15.7834C13.5304 15.9065 13.8914 15.9692 14.2654 15.9716C14.8052 15.974 15.2787 15.8674 15.6859 15.652C16.0955 15.4342 16.4139 15.1335 16.6412 14.75C16.8708 14.3665 16.9856 13.9285 16.9856 13.4361C16.9856 12.9815 16.8886 12.5779 16.6944 12.2251C16.5003 11.8724 16.2351 11.5954 15.899 11.3942C15.5628 11.1906 15.1793 11.0888 14.7484 11.0888C14.4833 11.0888 14.2311 11.1302 13.992 11.2131C13.7553 11.2936 13.5434 11.4107 13.3564 11.5646C13.1717 11.7161 13.0249 11.8996 12.916 12.1151H12.8663C12.871 11.4072 12.9953 10.8473 13.2392 10.4354C13.4854 10.0234 13.8452 9.81747 14.3187 9.81747C14.5981 9.81747 14.8324 9.88968 15.0218 10.0341C15.2112 10.1785 15.3355 10.3774 15.3947 10.6307H16.911C16.8637 10.2306 16.7264 9.86956 16.4991 9.54759C16.2742 9.22562 15.9759 8.97112 15.6042 8.78409C15.2325 8.5947 14.804 8.5 14.3187 8.5C13.8689 8.5 13.4629 8.58878 13.1007 8.76634C12.7385 8.94152 12.4271 9.19721 12.1667 9.53338C11.9087 9.86955 11.7098 10.2791 11.5701 10.7621C11.4328 11.2427 11.363 11.7884 11.3606 12.3991C11.3606 13.0644 11.4399 13.6255 11.5985 14.0824C11.7595 14.5393 11.9773 14.9063 12.252 15.1832C12.5266 15.4602 12.8367 15.6603 13.1824 15.7834ZM14.894 14.5938C14.707 14.7074 14.4951 14.7642 14.2583 14.7642C14.0216 14.7642 13.8097 14.7062 13.6227 14.5902C13.438 14.4742 13.2913 14.3191 13.1824 14.125C13.0758 13.9309 13.0225 13.7166 13.0225 13.4822C13.0225 13.3071 13.0545 13.1425 13.1184 12.9886C13.1824 12.8324 13.2699 12.6951 13.3812 12.5767C13.4949 12.4583 13.6262 12.366 13.7754 12.2997C13.9269 12.2334 14.0914 12.2003 14.269 12.2003C14.5057 12.2003 14.7164 12.2571 14.9011 12.3707C15.0858 12.4844 15.2302 12.6371 15.3343 12.8288C15.4409 13.0206 15.4941 13.2372 15.4941 13.4787C15.4941 13.7202 15.4409 13.938 15.3343 14.1321C15.2278 14.3262 15.081 14.4801 14.894 14.5938ZM9.74574 15.8722V8.59943H8.30043L6.5 9.73935V11.103L8.16548 10.0589H8.2081V15.8722H9.74574Z" fill="#708090"/>
</svg>
